# This file uses centimeters as units for non-parametric coordinates.

mtllib bushy_grass_001.mtl
g default
v -0.480547 -0.064433 0.079581
v 0.519453 -0.064433 0.079581
v -0.480547 0.935567 0.079581
v 0.519453 0.935567 0.079581
vt 0.115729 0.115729
vt 0.884271 0.115729
vt 0.115729 0.884271
vt 0.884271 0.884271
vn 0.000000 0.000000 1.000000
vn 0.000000 0.000000 1.000000
vn 0.000000 0.000000 1.000000
vn 0.000000 0.000000 1.000000
s off
g pPlane29 bushy_grass_AB_002
usemtl blinn26SG
f 1/1/1 2/2/2 4/4/3 3/3/4
g default
v -0.516459 -0.064433 0.033327
v 0.483541 -0.064433 0.033327
v -0.516459 0.935567 0.033327
v 0.483541 0.935567 0.033327
vt 0.115729 0.115729
vt 0.884271 0.115729
vt 0.115729 0.884271
vt 0.884271 0.884271
vn 0.000000 0.000000 1.000000
vn 0.000000 0.000000 1.000000
vn 0.000000 0.000000 1.000000
vn 0.000000 0.000000 1.000000
s off
g bushy_grass_AB_002 pPlane33
usemtl blinn27SG
f 5/5/5 6/6/6 8/8/7 7/7/8
g default
v -0.516446 -0.064433 -0.017705
v 0.483529 -0.064433 -0.024787
v -0.516446 0.935567 -0.017705
v 0.483529 0.935567 -0.024787
vt 0.115729 0.115729
vt 0.884271 0.115729
vt 0.115729 0.884271
vt 0.884271 0.884271
vn 0.007082 0.000000 0.999975
vn 0.007082 0.000000 0.999975
vn 0.007082 0.000000 0.999975
vn 0.007082 0.000000 0.999975
s off
g bushy_grass_AB_002 pPlane38
usemtl blinn28SG
f 9/9/9 10/10/10 12/12/11 11/11/12
g default
v 0.369223 -0.041004 -0.243812
v -0.381161 -0.041004 0.343897
v 0.369223 0.912137 -0.243812
v -0.381161 0.912137 0.343897
vt 0.115729 0.115729
vt 0.884271 0.115729
vt 0.115729 0.884271
vt 0.884271 0.884271
vn -0.616602 0.000000 -0.787275
vn -0.616602 0.000000 -0.787275
vn -0.616602 0.000000 -0.787275
vn -0.616602 0.000000 -0.787275
s off
g bushy_grass_AB_002 pPlane39
usemtl blinn26SG
f 13/13/13 14/14/14 16/16/15 15/15/16
g default
v -0.132067 -0.064433 -0.453124
v 0.099149 -0.064433 0.519778
v -0.132067 0.935567 -0.453124
v 0.099149 0.935567 0.519778
vt 0.115729 0.115729
vt 0.884271 0.115729
vt 0.115729 0.884271
vt 0.884271 0.884271
vn -0.972903 -0.000000 0.231215
vn -0.972903 -0.000000 0.231215
vn -0.972903 -0.000000 0.231215
vn -0.972903 -0.000000 0.231215
s off
g bushy_grass_AB_002 pPlane40
usemtl blinn27SG
f 17/17/17 18/18/18 20/20/19 19/19/20
g default
v -0.064752 -0.006611 -0.520951
v -0.098793 -0.002125 0.478459
v 0.065875 0.984821 -0.520951
v 0.031834 0.989306 0.478459
vt 0.115729 0.115729
vt 0.884271 0.115729
vt 0.115729 0.884271
vt 0.884271 0.884271
vn -0.990847 0.130550 -0.034336
vn -0.990847 0.130550 -0.034336
vn -0.990847 0.130550 -0.034336
vn -0.990847 0.130550 -0.034336
s off
g bushy_grass_AB_002 pPlane44
usemtl blinn28SG
f 21/21/21 22/22/22 24/24/23 23/23/24
g default
v -0.347286 -0.041004 -0.282557
v 0.335347 -0.041004 0.382642
v -0.347286 0.912137 -0.282557
v 0.335347 0.912137 0.382642
vt 0.115729 0.115729
vt 0.884271 0.115729
vt 0.115729 0.884271
vt 0.884271 0.884271
vn -0.697902 0.000000 0.716193
vn -0.697902 0.000000 0.716193
vn -0.697902 0.000000 0.716193
vn -0.697902 0.000000 0.716193
s off
g bushy_grass_AB_002 pPlane50
usemtl blinn26SG
f 25/25/25 26/26/26 28/28/27 27/27/28
g default
v 0.223006 -0.064433 -0.405600
v -0.255923 -0.064433 0.472254
v 0.223006 0.935567 -0.405600
v -0.255923 0.935567 0.472254
vt 0.115729 0.115729
vt 0.884271 0.115729
vt 0.115729 0.884271
vt 0.884271 0.884271
vn -0.877854 0.000000 -0.478929
vn -0.877854 0.000000 -0.478929
vn -0.877854 0.000000 -0.478929
vn -0.877854 0.000000 -0.478929
s off
g bushy_grass_AB_002 pPlane51
usemtl blinn27SG
f 29/29/29 30/30/30 32/32/31 31/31/32
