# This file uses centimeters as units for non-parametric coordinates.

mtllib fan_plant_small_001.mtl
g default
v -0.258779 -0.007865 -0.000000
v 0.257144 -0.007865 -0.000000
v -0.258779 0.508058 -0.000000
v 0.257144 0.508058 -0.000000
vt 0.075254 0.059952
vt 0.940352 0.059952
vt 0.075254 0.925049
vt 0.940352 0.925049
vn 0.000000 0.000000 1.000000
vn 0.000000 0.000000 1.000000
vn 0.000000 0.000000 1.000000
vn 0.000000 0.000000 1.000000
s off
g pPlane4 fan_plant_small
usemtl lambert5SG
f 1/1/1 2/2/2 4/4/3 3/3/4
g default
v -0.000818 -0.007865 0.257961
v -0.000818 -0.007865 -0.257961
v -0.000818 0.508058 0.257961
v -0.000818 0.508058 -0.257961
vt 0.075254 0.059952
vt 0.940352 0.059952
vt 0.075254 0.925049
vt 0.940352 0.925049
vn 1.000000 0.000000 -0.000000
vn 1.000000 0.000000 -0.000000
vn 1.000000 0.000000 -0.000000
vn 1.000000 0.000000 -0.000000
s off
g fan_plant_small pPlane5
usemtl lambert5SG
f 5/5/5 6/6/6 8/8/7 7/7/8
