# This file uses centimeters as units for non-parametric coordinates.

mtllib glow_bush_001.mtl
g default
v -0.382167 -0.017786 -0.000209
v 0.348188 -0.017786 -0.000209
v -0.382167 0.712569 -0.000209
v 0.348188 0.712569 -0.000209
vt 0.016986 0.044557
vt 0.932467 0.044557
vt 0.016986 0.960038
vt 0.932467 0.960038
vn 0.000000 0.000000 1.000000
vn 0.000000 0.000000 1.000000
vn 0.000000 0.000000 1.000000
vn 0.000000 0.000000 1.000000
s off
g pPlane29 glowy_grass_002
usemtl blinn38SG
f 1/1/1 2/2/2 4/4/3 3/3/4
g default
v -0.027721 -0.017786 -0.365228
v -0.006258 -0.017786 0.364811
v -0.027721 0.712569 -0.365228
v -0.006258 0.712569 0.364811
vt 0.016986 0.044557
vt 0.932467 0.044557
vt 0.016986 0.960038
vt 0.932467 0.960038
vn -0.999568 -0.000000 0.029387
vn -0.999568 -0.000000 0.029387
vn -0.999568 -0.000000 0.029387
vn -0.999568 -0.000000 0.029387
s off
g glowy_grass_002 pPlane30
usemtl blinn38SG
f 5/5/5 6/6/6 8/8/7 7/7/8
g default
v -0.405699 -0.041318 -0.031450
v 0.371719 -0.041318 -0.031450
v -0.405699 0.736101 -0.031450
v 0.371719 0.736101 -0.031450
vt 0.016986 0.044557
vt 0.932467 0.044557
vt 0.016986 0.960038
vt 0.932467 0.960038
vn 0.000000 0.000000 1.000000
vn 0.000000 0.000000 1.000000
vn 0.000000 0.000000 1.000000
vn 0.000000 0.000000 1.000000
s off
g glowy_grass_002 pPlane47
usemtl blinn39SG
f 9/9/9 10/10/10 12/12/11 11/11/12
g default
v 0.008266 -0.041318 -0.388750
v 0.031112 -0.041318 0.388333
v 0.008266 0.736101 -0.388750
v 0.031112 0.736101 0.388333
vt 0.016986 0.044557
vt 0.932467 0.044557
vt 0.016986 0.960038
vt 0.932467 0.960038
vn -0.999568 -0.000000 0.029387
vn -0.999568 -0.000000 0.029387
vn -0.999568 -0.000000 0.029387
vn -0.999568 -0.000000 0.029387
s off
g glowy_grass_002 pPlane48
usemtl blinn39SG
f 13/13/13 14/14/14 16/16/15 15/15/16
