# This file uses centimeters as units for non-parametric coordinates.

mtllib tall_grass_001.mtl
g default
v -0.500593 -0.127652 0.032563
v 0.499407 -0.127652 0.032563
v -0.500593 0.872348 0.032563
v 0.499407 0.872348 0.032563
vt 0.000000 0.000000
vt 1.000000 0.000000
vt 0.000000 1.000000
vt 1.000000 1.000000
vn 0.000000 0.000000 1.000000
vn 0.000000 0.000000 1.000000
vn 0.000000 0.000000 1.000000
vn 0.000000 0.000000 1.000000
s off
g pPlane29 tall_wheat_grass_002
usemtl blinn16SG
f 1/1/1 2/2/2 4/4/3 3/3/4
g default
v -0.500593 -0.127652 -0.035297
v 0.499407 -0.127652 -0.035297
v -0.500593 0.872348 -0.035297
v 0.499407 0.872348 -0.035297
vt 0.000000 0.000000
vt 1.000000 0.000000
vt 0.000000 1.000000
vt 1.000000 1.000000
vn 0.000000 0.000000 1.000000
vn 0.000000 0.000000 1.000000
vn 0.000000 0.000000 1.000000
vn 0.000000 0.000000 1.000000
s off
g tall_wheat_grass_002 pPlane33
usemtl blinn17SG
f 5/5/5 6/6/6 8/8/7 7/7/8
g default
v -0.500580 -0.127652 -0.107103
v 0.499395 -0.127652 -0.114185
v -0.500580 0.872348 -0.107103
v 0.499395 0.872348 -0.114185
vt 0.000000 0.000000
vt 1.000000 0.000000
vt 0.000000 1.000000
vt 1.000000 1.000000
vn 0.007082 0.000000 0.999975
vn 0.007082 0.000000 0.999975
vn 0.007082 0.000000 0.999975
vn 0.007082 0.000000 0.999975
s off
g tall_wheat_grass_002 pPlane38
usemtl blinn18SG
f 9/9/9 10/10/10 12/12/11 11/11/12
g default
v -0.050829 -0.127652 -0.464907
v 0.049643 -0.127652 0.530033
v -0.050829 0.872348 -0.464907
v 0.049643 0.872348 0.530033
vt 0.000000 0.000000
vt 1.000000 0.000000
vt 0.000000 1.000000
vt 1.000000 1.000000
vn -0.994940 -0.000000 0.100472
vn -0.994940 -0.000000 0.100472
vn -0.994940 -0.000000 0.100472
vn -0.994940 -0.000000 0.100472
s off
g tall_wheat_grass_002 pPlane39
usemtl blinn16SG
f 13/13/13 14/14/14 16/16/15 15/15/16
g default
v -0.086388 -0.127652 -0.527881
v 0.085202 -0.127652 0.457287
v -0.086388 0.872348 -0.527881
v 0.085202 0.872348 0.457287
vt 0.000000 0.000000
vt 1.000000 0.000000
vt 0.000000 1.000000
vt 1.000000 1.000000
vn -0.985168 -0.000000 0.171591
vn -0.985168 -0.000000 0.171591
vn -0.985168 -0.000000 0.171591
vn -0.985168 -0.000000 0.171591
s off
g tall_wheat_grass_002 pPlane40
usemtl blinn17SG
f 17/17/17 18/18/18 20/20/19 19/19/20
