# This file uses centimeters as units for non-parametric coordinates.

mtllib wide_grass_001.mtl
g default
v -1.184135 -0.093427 0.015492
v 1.184135 -0.093427 0.015492
v -1.184135 0.528720 0.015492
v 1.184135 0.528720 0.015492
vt 0.090667 0.266770
vt 0.883439 0.266770
vt 0.883439 0.606997
vt 0.090667 0.606997
vn 0.000000 0.000000 1.000000
vn 0.000000 0.000000 1.000000
vn 0.000000 0.000000 1.000000
vn 0.000000 0.000000 1.000000
s off
g pPlane41 grass_wide_AB_002
usemtl blinn21SG
f 1/1/1 2/2/2 4/3/3 3/4/4
g default
v 1.251518 -0.079312 -0.020411
v -1.251518 -0.079312 -0.020411
v 1.251518 0.566108 -0.146133
v -1.251518 0.566108 -0.146133
vt 0.090667 0.266770
vt 0.883439 0.266770
vt 0.883439 0.606997
vt 0.090667 0.606997
vn 0.000000 -0.191198 -0.981552
vn 0.000000 -0.191198 -0.981552
vn 0.000000 -0.191198 -0.981552
vn 0.000000 -0.191198 -0.981552
s off
g grass_wide_AB_002 pPlane42
usemtl blinn21SG
f 5/5/5 6/6/6 8/7/7 7/8/8
g default
v -1.184135 -0.098700 0.020475
v 1.184135 -0.098700 0.020475
v -1.184135 0.510232 0.148021
v 1.184135 0.510232 0.148021
vt 0.090667 0.266770
vt 0.883439 0.266770
vt 0.883439 0.606997
vt 0.090667 0.606997
vn 0.000000 -0.205011 0.978760
vn 0.000000 -0.205011 0.978760
vn 0.000000 -0.205011 0.978760
vn 0.000000 -0.205011 0.978760
s off
g grass_wide_AB_002 pPlane43
usemtl blinn22SG
f 9/9/9 10/10/10 12/11/11 11/12/12
